<svg data-v-423bf9ae="" xmlns="http://www.w3.org/2000/svg" viewBox="0 0 181.92858709121342 60" class="font"><!----><!----><defs data-v-423bf9ae=""><linearGradient data-v-423bf9ae="" gradientTransform="rotate(25)" id="667855cd-e0aa-43b7-b35f-4b476e511b4c" x1="0%" y1="0%" x2="100%" y2="0%"><stop data-v-423bf9ae="" offset="0%" style="stop-color: rgb(101, 102, 206); stop-opacity: 1;"></stop><stop data-v-423bf9ae="" offset="100%" style="stop-color: rgb(219, 193, 208); stop-opacity: 1;"></stop></linearGradient></defs><g data-v-423bf9ae="" id="9adfd3bd-ef32-49ab-a32e-b292361e177a" fill="url(#667855cd-e0aa-43b7-b35f-4b476e511b4c)" transform="matrix(4.285714577655423,0,0,4.285714577655423,-2.700002255732244,-12.000000374657809)"><path d="M6.80 9.35C6.61 8.66 6.24 8.10 5.69 7.67C5.12 7.23 4.49 7.01 3.78 7.01C2.90 7.01 2.15 7.33 1.54 7.97C0.93 8.59 0.63 9.34 0.63 10.22C0.63 11.09 0.93 11.84 1.54 12.48C1.82 12.78 2.15 13.01 2.53 13.18C2.92 13.35 3.30 13.44 3.70 13.44C4.09 13.44 4.44 13.39 4.75 13.28C5.73 12.94 6.40 12.27 6.75 11.28L5.64 11.28C5.46 11.63 5.20 11.90 4.87 12.11C4.53 12.32 4.17 12.42 3.78 12.42C3.18 12.42 2.67 12.20 2.26 11.77C1.85 11.33 1.64 10.82 1.64 10.22C1.64 9.63 1.85 9.12 2.26 8.69C2.45 8.49 2.68 8.33 2.94 8.21C3.20 8.09 3.51 8.04 3.88 8.04C4.24 8.04 4.60 8.16 4.96 8.40C5.31 8.64 5.57 8.96 5.74 9.35ZM13.38 10.19C13.38 10.80 13.16 11.32 12.73 11.76C12.29 12.20 11.76 12.42 11.14 12.42C10.53 12.42 10.00 12.20 9.56 11.76C9.12 11.32 8.90 10.80 8.90 10.19C8.90 9.58 9.12 9.05 9.56 8.61C10.00 8.17 10.53 7.95 11.14 7.95C11.76 7.95 12.29 8.17 12.73 8.61C13.16 9.05 13.38 9.58 13.38 10.19ZM14.36 10.19C14.36 9.31 14.05 8.55 13.42 7.92C12.79 7.29 12.03 6.97 11.14 6.97C10.26 6.97 9.50 7.29 8.87 7.92C8.24 8.55 7.92 9.31 7.92 10.19C7.92 11.08 8.24 11.84 8.87 12.46C9.50 13.09 10.26 13.40 11.14 13.40C12.03 13.40 12.78 13.09 13.42 12.46C14.05 11.84 14.36 11.08 14.36 10.19ZM17.02 16.80L17.02 12.25C17.08 12.32 17.14 12.39 17.20 12.46C17.78 13.11 18.50 13.44 19.35 13.44C20.20 13.44 20.92 13.11 21.50 12.46C22.06 11.83 22.34 11.08 22.34 10.22C22.34 9.36 22.06 8.61 21.50 7.98C20.92 7.33 20.20 7.00 19.35 7.00C18.50 7.00 17.78 7.33 17.20 7.98C17.14 8.05 17.08 8.12 17.02 8.19L17.02 7.14L16.04 7.14L16.04 16.80ZM21.36 10.22C21.36 10.82 21.16 11.34 20.74 11.79C20.32 12.24 19.81 12.46 19.19 12.46C18.58 12.46 18.06 12.24 17.65 11.79C17.23 11.34 17.02 10.82 17.02 10.22C17.02 9.62 17.23 9.10 17.65 8.65C18.06 8.20 18.58 7.98 19.19 7.98C19.81 7.98 20.32 8.20 20.74 8.65C21.16 9.10 21.36 9.62 21.36 10.22ZM30.04 10.08C30.04 9.23 29.72 8.50 29.07 7.88C28.43 7.28 27.69 6.97 26.82 6.97C25.94 6.97 25.18 7.29 24.55 7.92C23.92 8.55 23.60 9.31 23.60 10.19C23.60 11.08 23.92 11.84 24.55 12.46C24.84 12.75 25.18 12.98 25.57 13.15C25.96 13.31 26.43 13.40 26.97 13.40C27.52 13.40 28.05 13.23 28.58 12.89C29.11 12.55 29.50 12.08 29.76 11.49L28.64 11.49C28.43 11.78 28.16 12.01 27.84 12.17C27.52 12.34 27.18 12.42 26.82 12.42C26.30 12.42 25.82 12.25 25.40 11.90C24.98 11.56 24.72 11.13 24.63 10.60L30.04 10.60ZM29.01 9.76L24.64 9.76C24.70 9.50 24.79 9.26 24.93 9.04C25.40 8.31 26.03 7.95 26.82 7.95C27.35 7.95 27.81 8.12 28.22 8.46C28.63 8.80 28.90 9.23 29.01 9.76ZM34.82 8.41L34.82 7.14C34.62 7.06 34.42 7.01 34.20 7.01C33.51 7.01 33.00 7.40 32.68 8.16L32.63 8.41L32.63 7.14L31.65 7.14L31.65 13.30L32.63 13.30L32.63 10.22C32.63 9.71 32.75 9.26 32.98 8.86C33.11 8.64 33.26 8.47 33.44 8.32C33.62 8.18 33.84 8.11 34.10 8.11C34.35 8.11 34.59 8.21 34.82 8.41ZM36.99 13.30L36.99 10.34L39.41 13.30L40.71 13.30L38.01 10.12L40.54 7.13L39.24 7.13L36.99 9.90L36.99 2.80L36.01 2.80L36.01 13.30ZM42.90 5.01C42.77 4.89 42.63 4.83 42.45 4.83C42.28 4.83 42.14 4.89 42.01 5.01C41.89 5.13 41.83 5.28 41.83 5.45C41.83 5.63 41.89 5.77 42.01 5.89C42.14 6.02 42.28 6.08 42.45 6.08C42.63 6.08 42.77 6.02 42.90 5.89C43.02 5.77 43.08 5.63 43.08 5.45C43.08 5.28 43.02 5.13 42.90 5.01ZM42.95 13.30L42.95 7.14L41.97 7.14L41.97 13.30Z"></path></g><!----><!----></svg>